<?xml version="1.0" encoding="UTF-8" standalone="no"?>
<!-- Created with Inkscape (http://www.inkscape.org/) -->

<svg
   width="5"
   height="31"
   viewBox="0 0 5 31"
   version="1.1"
   id="SVGRoot"
   sodipodi:docname="progressing_bar.inkscape.svg"
   inkscape:export-filename="hl_e.png"
   inkscape:export-xdpi="96"
   inkscape:export-ydpi="96"
   inkscape:version="1.2.2 (b0a8486541, 2022-12-01)"
   xmlns:inkscape="http://www.inkscape.org/namespaces/inkscape"
   xmlns:sodipodi="http://sodipodi.sourceforge.net/DTD/sodipodi-0.dtd"
   xmlns="http://www.w3.org/2000/svg"
   xmlns:svg="http://www.w3.org/2000/svg">
  <sodipodi:namedview
     id="namedview1413"
     pagecolor="#ffffff"
     bordercolor="#000000"
     borderopacity="0.25"
     inkscape:showpageshadow="2"
     inkscape:pageopacity="0.0"
     inkscape:pagecheckerboard="true"
     inkscape:deskcolor="#d1d1d1"
     inkscape:document-units="px"
     showgrid="true"
     inkscape:zoom="36.903616"
     inkscape:cx="4.9724124"
     inkscape:cy="17.396669"
     inkscape:window-width="1920"
     inkscape:window-height="1041"
     inkscape:window-x="4920"
     inkscape:window-y="487"
     inkscape:window-maximized="1"
     inkscape:current-layer="layer1"
     showborder="false"
     shape-rendering="auto"
     borderlayer="true">
    <inkscape:grid
       type="xygrid"
       id="grid1419"
       originx="0"
       originy="0" />
  </sodipodi:namedview>
  <defs
     id="defs1408" />
  <g
     inkscape:label="Layer 1"
     inkscape:groupmode="layer"
     id="layer1">
    <path
       id="path4563"
       style="font-variation-settings:normal;display:inline;opacity:1;vector-effect:none;fill:#858585;fill-opacity:0.155736;stroke-width:0.408248;stroke-linecap:butt;stroke-linejoin:miter;stroke-miterlimit:4;stroke-dasharray:none;stroke-dashoffset:0;stroke-opacity:1;-inkscape-stroke:none;stop-color:#000000;stop-opacity:1"
       d="m -20,11.5 v 9 H 0 V 20.46484 A 4.5,4.5 0 0 0 0.5,20.5 4.5,4.5 0 0 0 5,16 4.5,4.5 0 0 0 0.5,11.5 4.5,4.5 0 0 0 0,11.535156 V 11.5 Z"
       inkscape:label="bg_we" />
    <path
       id="path4563-9"
       style="font-variation-settings:normal;display:none;opacity:1;vector-effect:none;fill:#ffffff;fill-opacity:0.878711;stroke-width:0.527046;stroke-linecap:butt;stroke-linejoin:miter;stroke-miterlimit:4;stroke-dasharray:none;stroke-dashoffset:0;stroke-opacity:1;-inkscape-stroke:none;stop-color:#000000;stop-opacity:1"
       d="m -10,11.5 v 9 H 10 V 20.46484 A 4.5,4.5 0 0 0 10.5,20.5 4.5,4.5 0 0 0 15,16 4.5,4.5 0 0 0 10.5,11.5 4.5,4.5 0 0 0 10,11.53516 V 11.5 Z"
       inkscape:label="hl_we" />
  </g>
</svg>
